<?xml version="1.0" encoding="utf-8"?>
<!-- Generator: Adobe Illustrator 21.1.0, SVG Export Plug-In . SVG Version: 6.00 Build 0)  -->
<svg version="1.1" id="Layer_1" xmlns="http://www.w3.org/2000/svg" xmlns:xlink="http://www.w3.org/1999/xlink" x="0px" y="0px"
	 viewBox="0 0 850.4 408.7" style="enable-background:new 0 0 850.4 408.7;" xml:space="preserve">
<style type="text/css">
	.st0{clip-path:url(#SVGID_2_);fill:#FFFFFF;}
</style>
<g>
	<defs>
		<rect id="SVGID_1_" width="850.4" height="408.7"/>
	</defs>
	<clipPath id="SVGID_2_">
		<use xlink:href="#SVGID_1_"  style="overflow:visible;"/>
	</clipPath>
	<path class="st0" d="M677.1,104.9c27.9,0,50.3,22.5,50.3,50.3c0,17.3-8,32-21.2,41c13.7,9.3,23,24.8,23,42.6
		c0,28.6-23.5,52.1-52.1,52.1c-28.7,0-52.1-23.5-52.1-52.1c0-17.8,9-33.5,22.7-42.8c-12.6-9-20.6-23.5-20.6-40.8
		C627,127.3,649.2,104.9,677.1,104.9 M677.1,274c19.4,0,34.6-16.6,34.6-35.5s-15.3-35.5-34.6-35.5c-19.4,0-34.6,16.6-34.6,35.5
		S657.7,274,677.1,274 M677.1,121.2c-18.8,0-32.9,15.8-32.9,34c0,18.3,14.1,33.8,32.9,33.8c18.5,0,33.2-15.5,33.2-33.8
		C710.3,137,695.6,121.2,677.1,121.2"/>
	<polygon class="st0" points="559.5,166.4 559.5,121.2 528.7,121.2 528.7,166.4 493.5,166.4 493.5,195.7 605.5,195.7 605.5,166.4 	
		"/>
	<path class="st0" d="M559.5,258.2V205h-30.8v57.8c0,13.7,11.1,24.8,24.8,24.8h52v-29.3H559.5z"/>
	<path class="st0" d="M440,144.7c2.1,2,4.6,3.7,7.3,4.9c2.8,1.2,5.8,1.8,9.1,1.8c3.3,0,6.6-0.8,9.6-2.1c2.6-1.2,4.8-2.7,6.8-4.6
		c2.1-2,3.8-4.5,5-7.3c1.2-2.9,1.8-5.9,1.8-9.2c0-3.3-0.6-6.3-1.8-9.2c-1.2-2.9-2.9-5.3-5-7.3c-2-1.9-4.3-3.4-6.9-4.6
		c-3-1.4-6.3-2.1-9.5-2.1c-3.3,0-6.3,0.6-9.1,1.8c-2.8,1.2-5.2,2.9-7.3,4.9c-2.1,2-3.8,4.5-5,7.3c-1.2,2.9-1.8,5.9-1.8,9.2
		c0,3.3,0.6,6.3,1.8,9.2C436.2,140.2,437.9,142.6,440,144.7"/>
	<rect x="400.2" y="258.2" class="st0" width="107" height="29.3"/>
	<polygon class="st0" points="441.2,248.9 472,248.9 472,166.4 403.8,166.4 403.8,195.7 441.2,195.7 	"/>
	<rect x="265.8" y="166.4" class="st0" width="30.8" height="121.2"/>
	<path class="st0" d="M375.4,189.3c-2.2-6-5.3-11-9.2-14.9c-3.9-3.9-8.4-6.8-13.6-8.7c-5.1-1.9-10.6-2.8-16.5-2.8
		c-8.3,0-15.6,1.9-21.7,5.6c-3.4,2-6.2,4.6-8.5,7.6v21c4.4-4.2,10.3-6.3,17.8-6.3c7.8,0,13.8,2.5,18,7.5c4.2,5,6.2,11.8,6.2,20.4
		v68.9h30.8v-76.7C378.7,202.5,377.6,195.3,375.4,189.3"/>
	<path class="st0" d="M160.5,252.1c-4.7-5.7-7.1-13.6-7.1-23.7V121.2h-32.3v107.2c0,19.5,5.2,34.9,15.5,45.9
		c9.4,10,22.9,15.5,40.5,16.4v-30.5C169.9,259.3,164.3,256.7,160.5,252.1"/>
	<path class="st0" d="M212.1,121.2v107.2c0,10.1-2.4,18-7.1,23.7c-3.8,4.6-9.4,7.2-16.7,8.1v30.5c17.6-0.9,31.1-6.4,40.5-16.4
		c10.3-11.1,15.5-26.4,15.5-45.9V121.2H212.1z"/>
	<polygon class="st0" points="744.1,285.5 744.1,270.6 738.8,270.6 738.8,267.9 752.5,267.9 752.5,270.6 747.2,270.6 747.2,285.5 	
		"/>
	<polygon class="st0" points="770.4,285.5 770.4,271.9 765,285.5 763.6,285.5 758.2,271.9 758.2,285.5 755.1,285.5 755.1,267.9 
		759.5,267.9 764.3,280 769.1,267.9 773.4,267.9 773.4,285.5 	"/>
</g>
</svg>
